<?xml version="1.0" encoding="utf-8"?>
<svg xmlns="http://www.w3.org/2000/svg" version="1.1" viewBox="-780 -40 1240 700"><defs><filter id="igs-shadow"><feGaussianBlur in="SourceGraphic" stdDeviation="5"></feGaussianBlur></filter></defs><rect x="-780" y="-40" width="1240" height="700" fill="#FFFFFF"/><path d="M0,60 C0,100 -390,100 -390,140" stroke="#000000" stroke-width="2" fill="none"></path><circle cx="-390" cy="140" r="5" fill="#FF0000"></circle><path d="M-390,200 C-390,240 -580,240 -580,280" stroke="#000000" stroke-width="2" fill="none"></path><circle cx="-580" cy="280" r="5" fill="#FF0000"></circle><path d="M-580,340 C-580,380 -670,380 -670,420" stroke="#000000" stroke-width="2" fill="none"></path><circle cx="-670" cy="420" r="5" fill="#FF0000"></circle><path d="M-670,480 C-670,520 -710,520 -710,560" stroke="#000000" stroke-width="2" fill="none"></path><circle cx="-710" cy="560" r="5" fill="#FF0000"></circle><path d="M-670,480 C-670,520 -630,520 -630,560" stroke="#000000" stroke-width="2" fill="none"></path><circle cx="-630" cy="560" r="5" fill="#FF0000"></circle><circle cx="-670" cy="480" r="5" fill="#FF0000"></circle><path d="M-580,340 C-580,380 -490,380 -490,420" stroke="#000000" stroke-width="2" fill="none"></path><circle cx="-490" cy="420" r="5" fill="#FF0000"></circle><circle cx="-580" cy="340" r="5" fill="#FF0000"></circle><path d="M-490,480 C-490,520 -490,520 -490,560" stroke="#000000" stroke-width="2" fill="none"></path><circle cx="-490" cy="560" r="5" fill="#FF0000"></circle><circle cx="-490" cy="480" r="5" fill="#FF0000"></circle><path d="M-390,200 C-390,240 -200,240 -200,280" stroke="#000000" stroke-width="2" fill="none"></path><circle cx="-200" cy="280" r="5" fill="#FF0000"></circle><circle cx="-390" cy="200" r="5" fill="#FF0000"></circle><path d="M-200,340 C-200,380 -200,380 -200,420" stroke="#000000" stroke-width="2" fill="none"></path><circle cx="-200" cy="420" r="5" fill="#FF0000"></circle><circle cx="-200" cy="340" r="5" fill="#FF0000"></circle><path d="M-200,480 C-200,520 -200,520 -200,560" stroke="#000000" stroke-width="2" fill="none"></path><circle cx="-200" cy="560" r="5" fill="#FF0000"></circle><circle cx="-200" cy="480" r="5" fill="#FF0000"></circle><path d="M0,60 C0,100 390,100 390,140" stroke="#000000" stroke-width="2" fill="none"></path><circle cx="390" cy="140" r="5" fill="#FF0000"></circle><circle cx="0" cy="60" r="5" fill="#FF0000"></circle><path d="M390,200 C390,240 390,240 390,280" stroke="#000000" stroke-width="2" fill="none"></path><circle cx="390" cy="280" r="5" fill="#FF0000"></circle><circle cx="390" cy="200" r="5" fill="#FF0000"></circle><path d="M390,340 C390,380 390,380 390,420" stroke="#000000" stroke-width="2" fill="none"></path><circle cx="390" cy="420" r="5" fill="#FF0000"></circle><circle cx="390" cy="340" r="5" fill="#FF0000"></circle><path d="M390,480 C390,520 390,520 390,560" stroke="#000000" stroke-width="2" fill="none"></path><circle cx="390" cy="560" r="5" fill="#FF0000"></circle><circle cx="390" cy="480" r="5" fill="#FF0000"></circle><circle cx="0" cy="30" r="30" fill="#000000" opacity="0.2" filter="url(#igs-shadow)"></circle><circle cx="0" cy="30" r="30" fill="#000000"></circle><text font-family="-apple-system,system-ui,BlinkMacSystemFont,'Segoe UI',Roboto,'Helvetica Neue',Arial,sans-serif" x="0" y="30" text-anchor="middle" dominant-baseline="middle" fill="#FFFFFF">75300</text><circle cx="-390" cy="170" r="30" fill="#000000" opacity="0.2" filter="url(#igs-shadow)"></circle><circle cx="-390" cy="170" r="30" fill="#000000"></circle><text font-family="-apple-system,system-ui,BlinkMacSystemFont,'Segoe UI',Roboto,'Helvetica Neue',Arial,sans-serif" x="-390" y="170" text-anchor="middle" dominant-baseline="middle" fill="#FFFFFF">75301</text><circle cx="-580" cy="310" r="30" fill="#000000" opacity="0.2" filter="url(#igs-shadow)"></circle><circle cx="-580" cy="310" r="30" fill="#000000"></circle><text font-family="-apple-system,system-ui,BlinkMacSystemFont,'Segoe UI',Roboto,'Helvetica Neue',Arial,sans-serif" x="-580" y="310" text-anchor="middle" dominant-baseline="middle" fill="#FFFFFF">75303</text><circle cx="-670" cy="450" r="30" fill="#000000" opacity="0.2" filter="url(#igs-shadow)"></circle><circle cx="-670" cy="450" r="30" fill="#000000"></circle><text font-family="-apple-system,system-ui,BlinkMacSystemFont,'Segoe UI',Roboto,'Helvetica Neue',Arial,sans-serif" x="-670" y="450" text-anchor="middle" dominant-baseline="middle" fill="#FFFFFF">75305</text><circle cx="-710" cy="590" r="30" fill="#000000" opacity="0.2" filter="url(#igs-shadow)"></circle><circle cx="-710" cy="590" r="30" fill="#000000"></circle><text font-family="-apple-system,system-ui,BlinkMacSystemFont,'Segoe UI',Roboto,'Helvetica Neue',Arial,sans-serif" x="-710" y="590" text-anchor="middle" dominant-baseline="middle" fill="#FFFFFF">75309</text><circle cx="-630" cy="590" r="30" fill="#000000" opacity="0.2" filter="url(#igs-shadow)"></circle><circle cx="-630" cy="590" r="30" fill="#000000"></circle><text font-family="-apple-system,system-ui,BlinkMacSystemFont,'Segoe UI',Roboto,'Helvetica Neue',Arial,sans-serif" x="-630" y="590" text-anchor="middle" dominant-baseline="middle" fill="#FFFFFF">75313</text><circle cx="-490" cy="450" r="30" fill="#000000" opacity="0.2" filter="url(#igs-shadow)"></circle><circle cx="-490" cy="450" r="30" fill="#000000"></circle><text font-family="-apple-system,system-ui,BlinkMacSystemFont,'Segoe UI',Roboto,'Helvetica Neue',Arial,sans-serif" x="-490" y="450" text-anchor="middle" dominant-baseline="middle" fill="#FFFFFF">75308</text><circle cx="-490" cy="590" r="30" fill="#000000" opacity="0.2" filter="url(#igs-shadow)"></circle><circle cx="-490" cy="590" r="30" fill="#000000"></circle><text font-family="-apple-system,system-ui,BlinkMacSystemFont,'Segoe UI',Roboto,'Helvetica Neue',Arial,sans-serif" x="-490" y="590" text-anchor="middle" dominant-baseline="middle" fill="#FFFFFF">75314</text><circle cx="-200" cy="310" r="30" fill="#000000" opacity="0.2" filter="url(#igs-shadow)"></circle><circle cx="-200" cy="310" r="30" fill="#000000"></circle><text font-family="-apple-system,system-ui,BlinkMacSystemFont,'Segoe UI',Roboto,'Helvetica Neue',Arial,sans-serif" x="-200" y="310" text-anchor="middle" dominant-baseline="middle" fill="#FFFFFF">75306</text><circle cx="-200" cy="450" r="30" fill="#000000" opacity="0.2" filter="url(#igs-shadow)"></circle><circle cx="-200" cy="450" r="30" fill="#000000"></circle><text font-family="-apple-system,system-ui,BlinkMacSystemFont,'Segoe UI',Roboto,'Helvetica Neue',Arial,sans-serif" x="-200" y="450" text-anchor="middle" dominant-baseline="middle" fill="#FFFFFF">75310</text><circle cx="-200" cy="590" r="30" fill="#000000" opacity="0.2" filter="url(#igs-shadow)"></circle><circle cx="-200" cy="590" r="30" fill="#000000"></circle><text font-family="-apple-system,system-ui,BlinkMacSystemFont,'Segoe UI',Roboto,'Helvetica Neue',Arial,sans-serif" x="-200" y="590" text-anchor="middle" dominant-baseline="middle" fill="#FFFFFF">75312</text><circle cx="390" cy="170" r="30" fill="#000000" opacity="0.2" filter="url(#igs-shadow)"></circle><circle cx="390" cy="170" r="30" fill="#000000"></circle><text font-family="-apple-system,system-ui,BlinkMacSystemFont,'Segoe UI',Roboto,'Helvetica Neue',Arial,sans-serif" x="390" y="170" text-anchor="middle" dominant-baseline="middle" fill="#FFFFFF">75302</text><circle cx="390" cy="310" r="30" fill="#000000" opacity="0.2" filter="url(#igs-shadow)"></circle><circle cx="390" cy="310" r="30" fill="#000000"></circle><text font-family="-apple-system,system-ui,BlinkMacSystemFont,'Segoe UI',Roboto,'Helvetica Neue',Arial,sans-serif" x="390" y="310" text-anchor="middle" dominant-baseline="middle" fill="#FFFFFF">75304</text><circle cx="390" cy="450" r="30" fill="#000000" opacity="0.2" filter="url(#igs-shadow)"></circle><circle cx="390" cy="450" r="30" fill="#000000"></circle><text font-family="-apple-system,system-ui,BlinkMacSystemFont,'Segoe UI',Roboto,'Helvetica Neue',Arial,sans-serif" x="390" y="450" text-anchor="middle" dominant-baseline="middle" fill="#FFFFFF">75307</text><circle cx="390" cy="590" r="30" fill="#000000" opacity="0.2" filter="url(#igs-shadow)"></circle><circle cx="390" cy="590" r="30" fill="#000000"></circle><text font-family="-apple-system,system-ui,BlinkMacSystemFont,'Segoe UI',Roboto,'Helvetica Neue',Arial,sans-serif" x="390" y="590" text-anchor="middle" dominant-baseline="middle" fill="#FFFFFF">75311</text></svg>