<?xml version="1.0" encoding="utf-8"?>
<svg xmlns="http://www.w3.org/2000/svg" version="1.1" viewBox="-630 -20 995 500"><defs><filter id="igs-shadow"><feGaussianBlur in="SourceGraphic" stdDeviation="10"></feGaussianBlur></filter></defs><rect x="-630" y="-20" width="995" height="500" fill="#162A29"/><path d="M0,60 C0,80 -315,80 -315,100" stroke="#22C84A" stroke-width="2" fill="none"></path><circle cx="-315" cy="100" r="5" fill="#50FA7B"></circle><path d="M-315,160 C-315,180 -470,180 -470,200" stroke="#22C84A" stroke-width="2" fill="none"></path><circle cx="-470" cy="200" r="5" fill="#50FA7B"></circle><path d="M-470,260 C-470,280 -545,280 -545,300" stroke="#22C84A" stroke-width="2" fill="none"></path><circle cx="-545" cy="300" r="5" fill="#50FA7B"></circle><path d="M-545,360 C-545,380 -580,380 -580,400" stroke="#22C84A" stroke-width="2" fill="none"></path><circle cx="-580" cy="400" r="5" fill="#50FA7B"></circle><path d="M-545,360 C-545,380 -510,380 -510,400" stroke="#22C84A" stroke-width="2" fill="none"></path><circle cx="-510" cy="400" r="5" fill="#50FA7B"></circle><circle cx="-545" cy="360" r="5" fill="#50FA7B"></circle><path d="M-470,260 C-470,280 -395,280 -395,300" stroke="#22C84A" stroke-width="2" fill="none"></path><circle cx="-395" cy="300" r="5" fill="#50FA7B"></circle><circle cx="-470" cy="260" r="5" fill="#50FA7B"></circle><path d="M-395,360 C-395,380 -395,380 -395,400" stroke="#22C84A" stroke-width="2" fill="none"></path><circle cx="-395" cy="400" r="5" fill="#50FA7B"></circle><circle cx="-395" cy="360" r="5" fill="#50FA7B"></circle><path d="M-315,160 C-315,180 -160,180 -160,200" stroke="#22C84A" stroke-width="2" fill="none"></path><circle cx="-160" cy="200" r="5" fill="#50FA7B"></circle><circle cx="-315" cy="160" r="5" fill="#50FA7B"></circle><path d="M-160,260 C-160,280 -160,280 -160,300" stroke="#22C84A" stroke-width="2" fill="none"></path><circle cx="-160" cy="300" r="5" fill="#50FA7B"></circle><circle cx="-160" cy="260" r="5" fill="#50FA7B"></circle><path d="M-160,360 C-160,380 -160,380 -160,400" stroke="#22C84A" stroke-width="2" fill="none"></path><circle cx="-160" cy="400" r="5" fill="#50FA7B"></circle><circle cx="-160" cy="360" r="5" fill="#50FA7B"></circle><path d="M0,60 C0,80 315,80 315,100" stroke="#22C84A" stroke-width="2" fill="none"></path><circle cx="315" cy="100" r="5" fill="#50FA7B"></circle><circle cx="0" cy="60" r="5" fill="#50FA7B"></circle><path d="M315,160 C315,180 315,180 315,200" stroke="#22C84A" stroke-width="2" fill="none"></path><circle cx="315" cy="200" r="5" fill="#50FA7B"></circle><circle cx="315" cy="160" r="5" fill="#50FA7B"></circle><path d="M315,260 C315,280 315,280 315,300" stroke="#22C84A" stroke-width="2" fill="none"></path><circle cx="315" cy="300" r="5" fill="#50FA7B"></circle><circle cx="315" cy="260" r="5" fill="#50FA7B"></circle><path d="M315,360 C315,380 315,380 315,400" stroke="#22C84A" stroke-width="2" fill="none"></path><circle cx="315" cy="400" r="5" fill="#50FA7B"></circle><circle cx="315" cy="360" r="5" fill="#50FA7B"></circle><circle cx="0" cy="30" r="30" fill="#000000" opacity="0.3" filter="url(#igs-shadow)"></circle><circle cx="0" cy="30" r="30" fill="#FFFFFF"></circle><text font-family="-apple-system,system-ui,BlinkMacSystemFont,'Segoe UI',Roboto,'Helvetica Neue',Arial,sans-serif" x="0" y="30" text-anchor="middle" dominant-baseline="middle" fill="#000000">81379</text><circle cx="-315" cy="130" r="30" fill="#000000" opacity="0.3" filter="url(#igs-shadow)"></circle><circle cx="-315" cy="130" r="30" fill="#FFFFFF"></circle><text font-family="-apple-system,system-ui,BlinkMacSystemFont,'Segoe UI',Roboto,'Helvetica Neue',Arial,sans-serif" x="-315" y="130" text-anchor="middle" dominant-baseline="middle" fill="#000000">81380</text><circle cx="-470" cy="230" r="30" fill="#000000" opacity="0.3" filter="url(#igs-shadow)"></circle><circle cx="-470" cy="230" r="30" fill="#FFFFFF"></circle><text font-family="-apple-system,system-ui,BlinkMacSystemFont,'Segoe UI',Roboto,'Helvetica Neue',Arial,sans-serif" x="-470" y="230" text-anchor="middle" dominant-baseline="middle" fill="#000000">81382</text><circle cx="-545" cy="330" r="30" fill="#000000" opacity="0.3" filter="url(#igs-shadow)"></circle><circle cx="-545" cy="330" r="30" fill="#FFFFFF"></circle><text font-family="-apple-system,system-ui,BlinkMacSystemFont,'Segoe UI',Roboto,'Helvetica Neue',Arial,sans-serif" x="-545" y="330" text-anchor="middle" dominant-baseline="middle" fill="#000000">81383</text><circle cx="-580" cy="430" r="30" fill="#000000" opacity="0.3" filter="url(#igs-shadow)"></circle><circle cx="-580" cy="430" r="30" fill="#FFFFFF"></circle><text font-family="-apple-system,system-ui,BlinkMacSystemFont,'Segoe UI',Roboto,'Helvetica Neue',Arial,sans-serif" x="-580" y="430" text-anchor="middle" dominant-baseline="middle" fill="#000000">81389</text><circle cx="-510" cy="430" r="30" fill="#000000" opacity="0.3" filter="url(#igs-shadow)"></circle><circle cx="-510" cy="430" r="30" fill="#FFFFFF"></circle><text font-family="-apple-system,system-ui,BlinkMacSystemFont,'Segoe UI',Roboto,'Helvetica Neue',Arial,sans-serif" x="-510" y="430" text-anchor="middle" dominant-baseline="middle" fill="#000000">81393</text><circle cx="-395" cy="330" r="30" fill="#000000" opacity="0.3" filter="url(#igs-shadow)"></circle><circle cx="-395" cy="330" r="30" fill="#FFFFFF"></circle><text font-family="-apple-system,system-ui,BlinkMacSystemFont,'Segoe UI',Roboto,'Helvetica Neue',Arial,sans-serif" x="-395" y="330" text-anchor="middle" dominant-baseline="middle" fill="#000000">81386</text><circle cx="-395" cy="430" r="30" fill="#000000" opacity="0.3" filter="url(#igs-shadow)"></circle><circle cx="-395" cy="430" r="30" fill="#FFFFFF"></circle><text font-family="-apple-system,system-ui,BlinkMacSystemFont,'Segoe UI',Roboto,'Helvetica Neue',Arial,sans-serif" x="-395" y="430" text-anchor="middle" dominant-baseline="middle" fill="#000000">81390</text><circle cx="-160" cy="230" r="30" fill="#000000" opacity="0.3" filter="url(#igs-shadow)"></circle><circle cx="-160" cy="230" r="30" fill="#FFFFFF"></circle><text font-family="-apple-system,system-ui,BlinkMacSystemFont,'Segoe UI',Roboto,'Helvetica Neue',Arial,sans-serif" x="-160" y="230" text-anchor="middle" dominant-baseline="middle" fill="#000000">81384</text><circle cx="-160" cy="330" r="30" fill="#000000" opacity="0.3" filter="url(#igs-shadow)"></circle><circle cx="-160" cy="330" r="30" fill="#FFFFFF"></circle><text font-family="-apple-system,system-ui,BlinkMacSystemFont,'Segoe UI',Roboto,'Helvetica Neue',Arial,sans-serif" x="-160" y="330" text-anchor="middle" dominant-baseline="middle" fill="#000000">81388</text><circle cx="-160" cy="430" r="30" fill="#000000" opacity="0.3" filter="url(#igs-shadow)"></circle><circle cx="-160" cy="430" r="30" fill="#FFFFFF"></circle><text font-family="-apple-system,system-ui,BlinkMacSystemFont,'Segoe UI',Roboto,'Helvetica Neue',Arial,sans-serif" x="-160" y="430" text-anchor="middle" dominant-baseline="middle" fill="#000000">81392</text><circle cx="315" cy="130" r="30" fill="#000000" opacity="0.3" filter="url(#igs-shadow)"></circle><circle cx="315" cy="130" r="30" fill="#FFFFFF"></circle><text font-family="-apple-system,system-ui,BlinkMacSystemFont,'Segoe UI',Roboto,'Helvetica Neue',Arial,sans-serif" x="315" y="130" text-anchor="middle" dominant-baseline="middle" fill="#000000">81381</text><circle cx="315" cy="230" r="30" fill="#000000" opacity="0.3" filter="url(#igs-shadow)"></circle><circle cx="315" cy="230" r="30" fill="#FFFFFF"></circle><text font-family="-apple-system,system-ui,BlinkMacSystemFont,'Segoe UI',Roboto,'Helvetica Neue',Arial,sans-serif" x="315" y="230" text-anchor="middle" dominant-baseline="middle" fill="#000000">81385</text><circle cx="315" cy="330" r="30" fill="#000000" opacity="0.3" filter="url(#igs-shadow)"></circle><circle cx="315" cy="330" r="30" fill="#FFFFFF"></circle><text font-family="-apple-system,system-ui,BlinkMacSystemFont,'Segoe UI',Roboto,'Helvetica Neue',Arial,sans-serif" x="315" y="330" text-anchor="middle" dominant-baseline="middle" fill="#000000">81387</text><circle cx="315" cy="430" r="30" fill="#000000" opacity="0.3" filter="url(#igs-shadow)"></circle><circle cx="315" cy="430" r="30" fill="#FFFFFF"></circle><text font-family="-apple-system,system-ui,BlinkMacSystemFont,'Segoe UI',Roboto,'Helvetica Neue',Arial,sans-serif" x="315" y="430" text-anchor="middle" dominant-baseline="middle" fill="#000000">81391</text></svg>